<?xml version="1.0" encoding="UTF-8"?>
<svg width="64px" height="64px" viewBox="0 0 64 64" version="1.1" xmlns="http://www.w3.org/2000/svg" xmlns:xlink="http://www.w3.org/1999/xlink">
    <!-- Generator: Sketch 52.6 (67491) - http://www.bohemiancoding.com/sketch -->
    <title>Shapes</title>
    <desc>Created with Sketch.</desc>
    <g id="1---Front-Page" stroke="none" stroke-width="1" fill="none" fill-rule="evenodd">
        <g id="Desktop" transform="translate(-943.000000, -1211.000000)" fill-rule="nonzero">
            <g id="Tiles" transform="translate(180.000000, 1211.000000)">
                <g id="3" transform="translate(763.000000, 0.000000)">
                    <g id="Icon">
                        <g id="Shapes">
                            <circle id="Oval" fill="#4A61DD" cx="32" cy="32" r="5"></circle>
                            <path d="M27.455,40.91 C24.1045396,39.2027945 21.995033,35.7603372 21.995033,32 C21.995033,28.2396628 24.1045396,24.7972055 27.455,23.09 C27.773145,22.9274442 27.9804006,22.607508 27.9986956,22.2507084 C28.0169906,21.8939089 27.8435456,21.5544522 27.5436956,21.3602084 C27.2438456,21.1659647 26.863145,21.1464442 26.545,21.309 C22.5255295,23.3580245 19.9950017,27.4883878 19.9950017,32 C19.9950017,36.5116122 22.5255295,40.6419755 26.545,42.691 C26.6857385,42.7632755 26.8417893,42.8006591 27,42.8 C27.4627305,42.8009258 27.8656606,42.484262 27.9741354,42.0344248 C28.0826101,41.5845875 27.8682946,41.1190798 27.456,40.909 L27.455,40.91 Z" id="Path" fill-opacity="0.8" fill="#CCD4FF"></path>
                            <path d="M37.455,21.309 C36.9631904,21.0577104 36.3607896,21.2526904 36.1095,21.7445 C35.8582104,22.2363096 36.0531904,22.8387104 36.545,23.09 C39.8954604,24.7972055 42.004967,28.2396628 42.004967,32 C42.004967,35.7603372 39.8954604,39.2027945 36.545,40.91 C36.1340265,41.1205475 35.9206575,41.5851128 36.028736,42.0340543 C36.1368145,42.4829958 36.5382325,42.7995569 37,42.8 C37.1579551,42.8001897 37.3136488,42.7624665 37.454,42.69 C41.4734705,40.6409755 44.0039983,36.5106122 44.0039983,31.999 C44.0039983,27.4873878 41.4734705,23.3570245 37.454,21.308 L37.455,21.309 Z" id="Path" fill-opacity="0.8" fill="#CCD4FF"></path>
                        </g>
                    </g>
                </g>
            </g>
        </g>
    </g>
</svg>