<svg width="712" height="400" xmlns="http://www.w3.org/2000/svg" xmlns:xlink="http://www.w3.org/1999/xlink"><defs><filter x="-46.9%" y="-46.9%" width="193.8%" height="193.8%" filterUnits="objectBoundingBox" id="b"><feGaussianBlur stdDeviation="50" in="SourceGraphic"/></filter><filter x="-70%" y="-50%" width="240%" height="240%" filterUnits="objectBoundingBox" id="d"><feOffset dy="16" in="SourceAlpha" result="shadowOffsetOuter1"/><feGaussianBlur stdDeviation="16" in="shadowOffsetOuter1" result="shadowBlurOuter1"/><feComposite in="shadowBlurOuter1" in2="SourceAlpha" operator="out" result="shadowBlurOuter1"/><feColorMatrix values="0 0 0 0 0.0862745098 0 0 0 0 0.0941176471 0 0 0 0 0.133333333 0 0 0 0.16 0" in="shadowBlurOuter1"/></filter><path id="a" d="M0 0h712v400H0z"/><path d="M356 240c-22.091 0-40-17.909-40-40s17.909-40 40-40 40 17.909 40 40-17.909 40-40 40zm8-40.001a.999.999 0 00-.427-.819l-10-7a1 1 0 00-1.573.819V207a.999.999 0 001.573.819l10-7a.995.995 0 00.427-.818v-.002c0 .001 0 .001 0 0z" id="e"/><linearGradient x1="78.169%" y1="9.507%" x2="25.435%" y2="88.96%" id="f"><stop stop-color="#D0D5F4" stop-opacity=".64" offset="0%"/><stop stop-color="#DDE2F4" offset="100%"/></linearGradient></defs><g fill="none" fill-rule="evenodd"><mask id="c" fill="#fff"><use xlink:href="#a"/></mask><use fill="#2B2F40" xlink:href="#a"/><rect fill="#4A61DD" opacity=".08" filter="url(#b)" mask="url(#c)" x="196" y="53" width="320" height="320" rx="160"/><g mask="url(#c)"><use fill="#000" filter="url(#d)" xlink:href="#e"/><use fill="url(#f)" xlink:href="#e"/></g></g></svg>